<svg xmlns="http://www.w3.org/2000/svg" version="1.1" xmlns:xlink="http://www.w3.org/1999/xlink" xmlns:svgjs="http://svgjs.com/svgjs" width="48" height="48"><svg width="48" height="48" viewBox="0 0 48 48" fill="none" xmlns="http://www.w3.org/2000/svg">
<rect width="48" height="48" rx="8" fill="#170312"></rect>
<path d="M17.76 22.76C17.76 21.08 17.4267 19.7067 16.76 18.64C16.0933 17.5467 15.08 17 13.72 17C13.3467 17 12.9467 17.0267 12.52 17.08C12.0933 17.1067 11.7333 17.1333 11.44 17.16V27.48C11.76 27.6933 12.1867 27.8667 12.72 28C13.2533 28.1333 13.7867 28.2 14.32 28.2C15.4933 28.2 16.36 27.7333 16.92 26.8C17.48 25.84 17.76 24.4933 17.76 22.76ZM22.76 22.6C22.76 24.04 22.6 25.3733 22.28 26.6C21.96 27.8 21.4933 28.84 20.88 29.72C20.2667 30.5733 19.4933 31.24 18.56 31.72C17.6267 32.2 16.5467 32.44 15.32 32.44C14.0667 32.44 12.7733 32.1333 11.44 31.52V38.6H6.52V13.8C7.42667 13.5067 8.53333 13.2667 9.84 13.08C11.1733 12.8933 12.48 12.8 13.76 12.8C16.6667 12.8 18.8933 13.68 20.44 15.44C21.9867 17.2 22.76 19.5867 22.76 22.6Z" fill="white"></path>
<path d="M37.76 22.76C37.76 21.08 37.4267 19.7067 36.76 18.64C36.0933 17.5467 35.08 17 33.72 17C33.3467 17 32.9467 17.0267 32.52 17.08C32.0933 17.1067 31.7333 17.1333 31.44 17.16V27.48C31.76 27.6933 32.1867 27.8667 32.72 28C33.2533 28.1333 33.7867 28.2 34.32 28.2C35.4933 28.2 36.36 27.7333 36.92 26.8C37.48 25.84 37.76 24.4933 37.76 22.76ZM42.76 22.6C42.76 24.04 42.6 25.3733 42.28 26.6C41.96 27.8 41.4933 28.84 40.88 29.72C40.2667 30.5733 39.4933 31.24 38.56 31.72C37.6267 32.2 36.5467 32.44 35.32 32.44C34.0667 32.44 32.7733 32.1333 31.44 31.52V38.6H26.52V13.8C27.4267 13.5067 28.5333 13.2667 29.84 13.08C31.1733 12.8933 32.48 12.8 33.76 12.8C36.6667 12.8 38.8933 13.68 40.44 15.44C41.9867 17.2 42.76 19.5867 42.76 22.6Z" fill="#008FF5"></path>
</svg><style>@media (prefers-color-scheme: light) { :root { filter: none; } }
@media (prefers-color-scheme: dark) { :root { filter: none; } }
</style></svg>